# File created by Blade
# Date/Time:  Wed Jan 21 14:43:55 2015
# Frame Rate: 120.000 fps
#------------------------------------------------------
:FULLY-SPECIFIED
:DEGREES
1138
root 26.198672 34.916854 -19.584606 -167.232946 4.710926 192.283461
Spine -14.584904 2.376872 -38.130845
Head 26.280715 0.887766 -29.135045
LeftShoulder -15.764517 -52.719473 38.814716
LeftArm 46.062532 -30.571254 -8.190451
LeftForeArm -72.676528 0.000000 81.206325
LeftHand 1.393068 -0.000000 -18.748721
LeftHandThumb1 -26.253704 0.000000 33.147579
RightShoulder -11.529024 25.877795 -60.426430
RightArm 119.414600 62.205150 75.313372
RightForeArm 41.263298 -0.000000 98.403815
RightHand 12.774866 -0.000000 6.821388
RightHandThumb1 -24.326973 -0.000000 -32.862282
LeftUpLeg -2.693846 24.343392 23.142597
LeftLeg -8.252428 -0.000000 0.000000
LeftFoot -15.121273 25.292980 -16.606793
LeftToeBase 31.366399 -0.000000 -0.000000
RightUpLeg -5.743066 1.886231 19.615599
RightLeg -3.371728 -0.000000 0.000000
RightFoot -17.764198 -20.455628 12.513442
RightToeBase 23.441168 -0.000000 -0.000000
1139
root 26.206794 34.916087 -19.582745 -167.206544 4.658753 192.269660
Spine -14.556766 2.389247 -38.130232
Head 26.255953 0.866843 -29.160630
LeftShoulder -15.808557 -52.717935 38.841456
LeftArm 46.017262 -30.509765 -8.130519
LeftForeArm -72.538873 -0.000000 81.223267
LeftHand 1.476956 0.000000 -18.907240
LeftHandThumb1 -26.253704 0.000000 33.147579
RightShoulder -11.503038 25.941934 -60.428016
RightArm 119.328264 62.176123 75.241861
RightForeArm 41.267421 -0.000000 98.422038
RightHand 12.680853 0.000000 6.614731
RightHandThumb1 -24.326973 -0.000000 -32.862282
LeftUpLeg -2.764640 24.343658 23.121731
LeftLeg -8.238980 -0.000000 0.000000
LeftFoot -15.090488 25.262482 -16.633989
LeftToeBase 31.296858 -0.000000 -0.000000
RightUpLeg -5.772540 1.885149 19.625297
RightLeg -3.384608 -0.000000 0.000000
RightFoot -17.740025 -20.435230 12.676472
RightToeBase 22.982443 -0.000000 -0.000000
1140
root 26.213022 34.914601 -19.580633 -167.166867 4.623309 192.245999
Spine -14.562568 2.411290 -38.135529
Head 26.269949 0.859146 -29.226587
LeftShoulder -15.810822 -52.695102 38.807028
LeftArm 46.048826 -30.482728 -8.125286
LeftForeArm -72.537243 0.000000 81.202701
LeftHand 1.454954 -0.000000 -18.856653
LeftHandThumb1 -26.253704 0.000000 33.147579
RightShoulder -11.446697 26.026011 -60.442866
RightArm 119.159483 62.179139 75.090046
RightForeArm 41.303140 -0.000000 98.445786
RightHand 12.643851 -0.000000 6.533924
RightHandThumb1 -24.326973 -0.000000 -32.862282
LeftUpLeg -2.841314 24.360396 23.081407
LeftLeg -8.229883 -0.000000 0.000000
LeftFoot -15.057928 25.238569 -16.645346
LeftToeBase 31.236326 -0.000000 -0.000000
RightUpLeg -5.806329 1.926776 19.614286
RightLeg -3.412514 -0.000000 0.000000
RightFoot -17.757101 -20.515656 12.629212
RightToeBase 23.020640 -0.000000 -0.000000
1141
root 26.219989 34.913567 -19.581132 -167.139334 4.568584 192.229192
Spine -14.554375 2.444399 -38.135474
Head 26.279463 0.858143 -29.246497
LeftShoulder -15.831102 -52.742975 38.834825
LeftArm 46.050825 -30.388630 -8.145127
LeftForeArm -72.559842 -0.000000 81.240988
LeftHand 1.410992 0.000000 -18.788475
LeftHandThumb1 -26.253704 0.000000 33.147579
RightShoulder -11.414371 25.991538 -60.418275
RightArm 119.162691 62.164030 75.083931
RightForeArm 41.383065 -0.000000 98.490511
RightHand 12.564436 -0.000000 6.400548
RightHandThumb1 -24.326973 -0.000000 -32.862282
LeftUpLeg -2.912537 24.361067 23.058254
LeftLeg -8.210280 -0.000000 0.000000
LeftFoot -15.042653 25.201183 -16.660692
LeftToeBase 31.238510 -0.000000 -0.000000
RightUpLeg -5.827522 1.928711 19.615549
RightLeg -3.443182 -0.000000 0.000000
RightFoot -17.753794 -20.574414 12.610358
RightToeBase 22.993238 -0.000000 -0.000000
1142
root 26.226035 34.912100 -19.580342 -167.115380 4.513007 192.208707
Spine -14.520660 2.475596 -38.115153
Head 26.255502 0.799351 -29.354247
LeftShoulder -15.876811 -52.770116 38.842687
LeftArm 46.056516 -30.341620 -8.139645
LeftForeArm -72.576566 0.000000 81.244113
LeftHand 1.355195 -0.000000 -18.673299
LeftHandThumb1 -26.253704 0.000000 33.147579
RightShoulder -11.413777 25.900202 -60.371378
RightArm 119.350757 62.146673 75.188032
RightForeArm 41.442347 -0.000000 98.466711
RightHand 12.672023 -0.000000 6.463262
RightHandThumb1 -24.326973 -0.000000 -32.862282
LeftUpLeg -2.984912 24.351190 23.031683
LeftLeg -8.189518 -0.000000 0.000000
LeftFoot -15.040161 25.206770 -16.586216
LeftToeBase 31.418861 -0.000000 -0.000000
RightUpLeg -5.854213 1.917912 19.613442
RightLeg -3.463804 -0.000000 0.000000
RightFoot -17.768240 -20.644862 12.532377
RightToeBase 23.083351 -0.000000 -0.000000
1143
root 26.232805 34.911402 -19.580474 -167.100128 4.463875 192.192546
Spine -14.493250 2.511594 -38.093171
Head 26.246659 0.803242 -29.402957
LeftShoulder -15.880370 -52.750155 38.820964
LeftArm 46.056187 -30.333268 -8.108563
LeftForeArm -72.555998 -0.000000 81.223048
LeftHand 1.362818 -0.000000 -18.613983
LeftHandThumb1 -26.253704 0.000000 33.147579
RightShoulder -11.398598 25.884724 -60.375709
RightArm 119.349299 62.152327 75.185705
RightForeArm 41.361255 -0.000000 98.481738
RightHand 12.630933 -0.000000 6.431533
RightHandThumb1 -24.326973 -0.000000 -32.862282
LeftUpLeg -3.038776 24.348653 23.015458
LeftLeg -8.176981 -0.000000 0.000000
LeftFoot -15.021954 25.169858 -16.604344
LeftToeBase 31.406698 -0.000000 -0.000000
RightUpLeg -5.865140 1.915970 19.614298
RightLeg -3.492477 -0.000000 0.000000
RightFoot -17.759617 -20.645803 12.611847
RightToeBase 22.868606 -0.000000 -0.000000
1144
root 26.238861 34.910422 -19.580568 -167.071278 4.399873 192.178921
Spine -14.476461 2.528347 -38.062575
Head 26.236174 0.819424 -29.435287
LeftShoulder -15.879494 -52.715019 38.813041
LeftArm 46.053043 -30.341821 -8.104107
LeftForeArm -72.572004 0.000000 81.231801
LeftHand 1.446589 -0.000000 -18.753179
LeftHandThumb1 -26.253704 0.000000 33.147579
RightShoulder -11.374685 25.851057 -60.377828
RightArm 119.334327 62.186553 75.165212
RightForeArm 41.283230 -0.000000 98.511851
RightHand 12.524654 -0.000000 6.250554
RightHandThumb1 -24.326973 -0.000000 -32.862282
LeftUpLeg -3.110803 24.305537 22.999324
LeftLeg -8.163828 -0.000000 0.000000
LeftFoot -14.992159 25.147040 -16.662038
LeftToeBase 31.236760 -0.000000 -0.000000
RightUpLeg -5.889025 1.916165 19.617988
RightLeg -3.521403 -0.000000 0.000000
RightFoot -17.770075 -20.713316 12.545332
RightToeBase 22.969292 -0.000000 -0.000000
1145
root 26.244645 34.909039 -19.581294 -167.046913 4.339857 192.164663
Spine -14.455692 2.552738 -38.026924
Head 26.222004 0.823947 -29.491266
LeftShoulder -15.908970 -52.681044 38.843642
LeftArm 46.037918 -30.344140 -8.106418
LeftForeArm -72.563552 -0.000000 81.227376
LeftHand 1.454627 -0.000000 -18.867346
LeftHandThumb1 -26.253704 0.000000 33.147579
RightShoulder -11.375777 25.868137 -60.391844
RightArm 119.202543 62.184652 75.036052
RightForeArm 41.278690 0.000000 98.519193
RightHand 12.504475 -0.000000 6.184665
RightHandThumb1 -24.326973 -0.000000 -32.862282
LeftUpLeg -3.167357 24.253960 22.986713
LeftLeg -8.165854 -0.000000 0.000000
LeftFoot -14.987090 25.162846 -16.660903
LeftToeBase 31.300544 -0.000000 -0.000000
RightUpLeg -5.907899 1.911447 19.620861
RightLeg -3.553061 -0.000000 0.000000
RightFoot -17.768249 -20.761101 12.514071
RightToeBase 22.981111 -0.000000 -0.000000
1146
root 26.249563 34.907767 -19.582650 -167.020936 4.275182 192.150716
Spine -14.454231 2.566565 -37.987734
Head 26.261539 0.820203 -29.574845
LeftShoulder -15.879140 -52.597833 38.806220
LeftArm 46.068501 -30.385885 -8.119677
LeftForeArm -72.546145 -0.000000 81.236058
LeftHand 1.422500 -0.000000 -18.728163
LeftHandThumb1 -26.253704 0.000000 33.147579
RightShoulder -11.325786 25.732652 -60.323005
RightArm 119.391704 62.239295 75.140917
RightForeArm 41.283802 -0.000000 98.482568
RightHand 12.567959 -0.000000 6.234709
RightHandThumb1 -24.326973 -0.000000 -32.862282
LeftUpLeg -3.230100 24.206320 22.970968
LeftLeg -8.158582 -0.000000 0.000000
LeftFoot -14.987493 25.172782 -16.619412
LeftToeBase 31.405631 -0.000000 -0.000000
RightUpLeg -5.927946 1.880491 19.624918
RightLeg -3.586461 -0.000000 0.000000
RightFoot -17.751627 -20.749610 12.559658
RightToeBase 22.823721 -0.000000 -0.000000
1147
root 26.253703 34.906869 -19.584385 -167.008381 4.200706 192.134482
Spine -14.414674 2.575919 -37.936281
Head 26.267407 0.906596 -29.581153
LeftShoulder -15.929313 -52.601184 38.850333
LeftArm 46.066088 -30.366735 -8.150564
LeftForeArm -72.585546 -0.000000 81.233496
LeftHand 1.438896 -0.000000 -18.775775
LeftHandThumb1 -26.253704 0.000000 33.147579
RightShoulder -11.363736 25.806705 -60.406855
RightArm 119.153074 62.216682 74.979228
RightForeArm 41.237207 -0.000000 98.484335
RightHand 12.639722 -0.000000 6.492338
RightHandThumb1 -24.326973 -0.000000 -32.862282
LeftUpLeg -3.281494 24.153691 22.956040
LeftLeg -8.163150 -0.000000 0.000000
LeftFoot -14.952381 25.161578 -16.654791
LeftToeBase 31.302257 -0.000000 -0.000000
RightUpLeg -5.934992 1.860833 19.624771
RightLeg -3.618456 -0.000000 0.000000
RightFoot -17.757946 -20.827616 12.456519
RightToeBase 22.957528 -0.000000 -0.000000
1148
root 26.257663 34.905609 -19.585712 -166.988829 4.127251 192.121466
Spine -14.388616 2.565266 -37.881458
Head 26.265838 0.940964 -29.614631
LeftShoulder -15.942446 -52.468149 38.783055
LeftArm 46.248069 -30.472953 -8.208936
LeftForeArm -72.715891 -0.000000 81.115568
LeftHand 1.419078 -0.000000 -18.885088
LeftHandThumb1 -26.253704 0.000000 33.147579
RightShoulder -11.353865 25.773374 -60.400684
RightArm 119.108062 62.252852 74.923730
RightForeArm 41.225743 -0.000000 98.507976
RightHand 12.574443 -0.000000 6.336882
RightHandThumb1 -24.326973 -0.000000 -32.862282
LeftUpLeg -3.336051 24.083434 22.945440
LeftLeg -8.168083 -0.000000 0.000000
LeftFoot -14.958854 25.179445 -16.635414
LeftToeBase 31.380180 -0.000000 -0.000000
RightUpLeg -5.945432 1.851710 19.627840
RightLeg -3.662568 -0.000000 0.000000
RightFoot -17.763960 -20.872201 12.457808
RightToeBase 22.983227 -0.000000 -0.000000
